PathFileType	4	(X/Y/Z)	G:\Shared drives\HIT\Data\HapticPilot\Subject1\Edited\RHJC1.trc
DataRate	CameraRate	NumFrames	NumMarkers	Units	OrigDataRate	OrigDataStartFrame	OrigNumFrames
50.00	50.00	       7	38	mm	50.00	215	       571
Frame#	Time	r_knee			r_shank(antsup)			r_ankle			r_calc			r_5meta			r_toe			L_knee			L_shank(ant_sup)			L_ankle			L_calc			L_5meta			L_toe			r_mknee			r_mankle			L_mknee			L_mankle			r_sh2			r_sh3			r_sh4			L_sh2			L_sh3			r_thigh1			r_thigh2			r_thigh3			r_thigh4			r_thigh5			L_thigh1			L_thigh2			L_thigh3			L_thigh4			r.ASIS			r.PSIS			L.ASIS			L.PSIS			C7			R_Shoulder			L_Shoulder			Sternum			
		X1	Y1	Z1	X2	Y2	Z2	X3	Y3	Z3	X4	Y4	Z4	X5	Y5	Z5	X6	Y6	Z6	X7	Y7	Z7	X8	Y8	Z8	X9	Y9	Z9	X10	Y10	Z10	X11	Y11	Z11	X12	Y12	Z12	X13	Y13	Z13	X14	Y14	Z14	X15	Y15	Z15	X16	Y16	Z16	X17	Y17	Z17	X18	Y18	Z18	X19	Y19	Z19	X20	Y20	Z20	X21	Y21	Z21	X22	Y22	Z22	X23	Y23	Z23	X24	Y24	Z24	X25	Y25	Z25	X26	Y26	Z26	X27	Y27	Z27	X28	Y28	Z28	X29	Y29	Z29	X30	Y30	Z30	X31	Y31	Z31	X32	Y32	Z32	X33	Y33	Z33	X34	Y34	Z34	X35	Y35	Z35	X36	Y36	Z36	X37	Y37	Z37	X38	Y38	Z38	

215	4.280	776.62915	247.11703	943.50421	791.77606	168.86603	899.32373	721.99396	-164.80449	716.17969	637.11945	-178.31116	646.16980	828.54675	-249.69395	709.78833	873.96796	-189.99977	678.41278	761.25763	849.44330	565.33356	793.96796	838.51471	446.35080	698.17419	806.69818	110.26099	621.45947	753.71375	72.31176	814.10425	849.44165	41.77042	861.34735	793.44635	69.83218	795.71271	291.45679	825.04639	743.54578	-113.60564	637.38354	790.40863	726.65668	566.99670	728.45581	716.50055	121.02861	779.71405	59.20842	853.93115	716.51471	173.83139	903.26868	696.65894	66.13078	861.57983	706.86127	859.62360	466.53442	691.18927	848.59210	345.41159	808.89850	525.07776	1119.10876	820.37494	427.18250	1060.76685	777.60797	392.68802	1047.27686	695.33582	511.22418	1108.96167	714.33051	414.47943	1043.08069	808.08759	896.95221	840.65778	829.07324	883.92310	704.52295	692.54901	900.21735	822.97968	718.00110	873.93524	692.38434	831.38049	664.12964	1186.41125	641.24280	754.25018	1185.23010	814.84998	900.00983	1079.39209	640.03900	825.86786	1148.85376	740.57410	857.84589	1632.26074	776.00397	693.89014	1618.04089	806.87421	1032.23926	1565.91846	867.71582	845.22888	1538.29346	
216	4.300	778.30444	246.57748	946.28271	794.77838	169.76198	900.64240	722.16705	-166.69945	724.19904	636.70789	-183.23657	656.00226	829.27533	-251.25725	719.35760	873.73596	-192.45767	686.56805	760.69269	848.36951	565.40381	793.62585	837.62457	446.68420	698.26660	806.37213	110.48025	621.57361	753.65454	72.53719	814.14429	849.36584	41.90406	861.47119	793.35980	69.77592	794.96600	290.08728	827.82617	742.65918	-117.21949	644.26410	790.88416	725.87329	567.19104	728.67651	716.27393	121.03962	782.14227	59.66080	858.78076	719.10394	175.78813	905.96381	699.22272	65.82423	869.79688	706.16901	858.65546	467.07388	691.31055	847.55347	345.91605	808.74872	525.48236	1120.77673	820.36658	427.25491	1063.21509	777.58417	392.64090	1049.64038	695.37787	511.39154	1111.13647	714.15961	414.09082	1045.65149	806.84894	896.37793	840.47540	829.21478	882.27686	703.03809	690.91779	898.55231	822.64526	716.62585	872.58087	691.99542	831.27185	665.04089	1187.68982	640.92761	754.86749	1186.44312	813.67767	900.16016	1078.81860	639.27490	826.26563	1149.42090	742.14392	858.33459	1632.26392	776.79321	694.28845	1617.28406	809.55890	1032.50439	1565.65637	868.96051	845.47705	1537.59802	
217	4.320	776.89960	247.30257	946.95416	795.05695	170.72667	901.05371	723.05780	-168.07074	728.01312	637.52582	-186.41365	659.87439	830.66785	-250.99873	724.28979	874.70215	-191.97928	690.00494	759.58148	847.48370	565.47052	793.16827	836.38348	447.14645	698.31592	805.96069	110.66344	621.63977	753.50159	72.65062	814.21130	849.17078	42.02987	861.54816	793.13086	69.81724	791.09204	290.95206	827.41217	742.73218	-119.06499	646.75989	790.04718	724.86951	567.58636	728.72900	715.88141	120.92674	782.28705	60.35139	859.68427	718.48401	176.72673	906.65503	699.54395	65.82888	872.22113	705.84534	857.73285	467.48434	690.62360	846.85986	346.30551	808.42969	526.25031	1120.14709	819.54529	427.82895	1062.94006	776.61182	393.22626	1049.76660	694.73553	512.36658	1111.64929	713.25336	414.94119	1046.10315	804.55127	896.85754	839.56653	829.28625	882.61395	706.50690	689.22327	897.57611	821.94836	714.84784	870.92310	691.48364	831.31976	665.88501	1187.23621	640.88489	755.13867	1187.58435	812.17194	900.78967	1078.14844	638.82379	826.41351	1150.43481	743.96411	859.33954	1632.21509	777.77344	695.12677	1616.68152	811.99396	1033.30249	1565.28992	870.35254	846.05481	1536.99170	
218	4.340	774.89764	248.36130	945.55365	794.06598	171.70094	900.91412	724.00568	-167.62581	726.36993	638.76257	-186.78224	657.99170	832.38104	-249.34488	722.58588	875.97137	-190.12895	688.54657	758.04083	847.20306	565.47485	792.48462	835.69250	447.49225	698.25787	805.76160	110.69954	621.60272	753.43768	72.58041	814.17957	849.10730	42.13133	861.51556	793.03479	69.86296	781.70239	291.53958	824.49146	743.06683	-118.42643	645.35522	787.98383	724.19421	567.79797	728.56598	715.67957	120.74403	781.50299	61.24977	858.10461	717.70520	176.98129	906.28577	698.77148	66.13931	871.22717	705.05011	857.39307	467.67102	690.01080	846.68231	346.46408	807.66760	526.92657	1117.61755	818.48792	428.82266	1060.28088	775.25775	393.96539	1047.96667	694.25116	513.08020	1110.61816	711.75958	415.91580	1044.81641	802.59088	898.26422	838.35785	823.17285	883.02277	702.23474	686.90826	896.40692	821.71387	712.40173	869.49927	691.11737	831.49237	666.52905	1185.84204	640.87030	755.12244	1187.91663	811.48303	901.77399	1077.68091	638.52435	826.45416	1150.97485	745.90448	860.51038	1631.98315	779.24988	696.16870	1616.16504	813.92938	1034.43872	1564.94299	871.79645	847.08264	1536.32324	
219	4.360	772.52484	249.85480	942.91595	790.46674	172.29573	900.81555	725.05481	-165.45950	720.04950	639.95947	-184.19623	651.79547	834.06592	-246.67752	714.60840	877.19183	-186.33348	681.11847	756.34900	847.88123	565.29932	791.51965	836.05542	447.53177	698.11078	805.91132	110.46688	621.49548	753.50800	72.36418	814.12561	849.10492	42.08632	861.41095	793.02045	69.89156	777.78308	292.97443	820.24487	743.67010	-114.99271	640.36481	785.88666	724.45917	567.72705	728.30438	715.77893	120.68230	780.44440	62.92963	853.94598	714.71191	176.37135	904.67017	697.46667	66.26047	866.54065	704.35980	857.90112	467.26981	689.33673	847.29388	346.26105	806.95837	527.57367	1114.22766	817.95709	429.93658	1056.53430	774.71649	394.49487	1045.33337	693.89435	513.29016	1109.03735	710.77887	416.30655	1042.51331	801.04901	899.93054	837.40576	820.80554	884.12024	701.21429	684.86371	896.64929	821.36713	709.62646	869.59583	690.95282	831.49152	666.96924	1183.98694	640.47272	755.05164	1187.81409	810.87311	902.64288	1077.07947	638.15259	826.49512	1151.21411	747.88934	861.24170	1631.69104	781.31116	697.17059	1615.74353	815.21472	1035.30347	1564.72827	873.30603	848.09937	1535.52466	
220	4.380	770.03894	251.62163	938.43689	786.05231	172.21809	897.84039	726.11652	-162.33224	710.92297	640.69757	-178.99042	642.55206	835.52002	-242.68811	701.90558	877.98730	-181.25612	669.23486	755.44507	849.28839	565.16803	790.47638	837.51398	447.55756	698.00177	806.30676	110.30100	621.43634	753.65100	72.28392	814.17383	849.20538	42.00766	861.34052	793.16931	69.83605	777.07562	295.64932	816.69208	743.73358	-109.84071	631.58807	785.25958	725.93622	567.57135	728.19318	716.19946	120.82730	777.92334	64.30087	847.35876	710.03070	173.76979	901.85651	694.64801	67.05212	856.46411	703.36115	859.18481	467.32535	688.64063	848.16058	346.08688	806.92474	528.08661	1111.43506	817.98737	431.38644	1052.53125	775.12195	395.34329	1042.00256	694.06818	512.94568	1107.75806	710.96509	416.72519	1040.15063	799.21674	901.95789	836.80438	819.43286	885.96014	701.01001	683.66199	897.82855	821.54950	708.58380	871.29071	690.82733	831.27094	667.13318	1182.53845	640.15186	755.30054	1187.30688	810.29449	903.20520	1076.51379	637.42358	826.90259	1151.19482	749.57410	861.75940	1631.39050	783.67853	697.85870	1615.26306	815.96436	1035.99707	1564.62463	874.70074	849.10455	1534.69141	
221	4.400	768.50488	253.81749	931.73511	784.09650	174.18213	890.39087	726.45184	-156.42017	697.87634	640.01428	-172.55414	630.99182	836.16736	-236.58353	685.85370	877.91156	-174.28003	653.84491	754.95959	850.92975	565.20251	789.68488	839.19489	447.64709	698.00055	806.81732	110.24637	621.43097	753.89856	72.27940	814.05347	849.38995	41.75270	861.31238	793.37585	69.67189	776.68915	299.72903	811.81354	742.35938	-101.66788	619.94861	785.08960	728.09717	567.52759	728.12305	716.67499	120.99992	776.59485	67.68528	837.29651	707.87524	175.01247	895.25079	693.23071	68.86737	846.48102	702.13055	861.12549	467.21478	688.03186	849.30731	345.95145	807.37842	528.73480	1108.45520	818.33344	432.74625	1048.18469	775.38470	396.85098	1037.58789	694.59064	512.55908	1106.34375	711.30194	417.48828	1037.24109	799.74054	902.40735	837.80359	819.34265	887.37219	701.47021	683.87183	899.83240	821.51147	708.59540	873.61401	691.11182	830.81537	667.33020	1181.37488	639.81415	755.90118	1186.94861	809.61707	903.68066	1076.29688	636.73560	827.55511	1150.95740	751.45508	861.97766	1631.20764	785.91711	698.16040	1614.75427	816.23431	1036.65771	1564.45825	876.08887	849.85565	1534.00256	
